<svg width="90" height="92" viewBox="0 0 90 92" fill="none" xmlns="http://www.w3.org/2000/svg">
<circle cx="44.97" cy="45.3476" r="26.97" fill="#D9D9D9"/>
<path d="M54.0211 35.6391L37.0029 58.7864M54.0211 35.6391L55.907 47.9977M54.0211 35.6391L41.6626 37.525" stroke="black" stroke-width="4" stroke-linecap="round" stroke-linejoin="round"/>
<path d="M44.6056 76.4789L46.895 88.3863L44.5724 88.4931L43.4121 82.5251L43.0933 78.5305L42.6737 78.5498L42.7228 82.5568L42.115 88.6061L39.7925 88.7129L40.9795 76.6456L44.6056 76.4789Z" fill="white"/>
<path d="M35.6722 74.675L31.6413 85.9778L29.5221 85.222L33.553 73.9193L35.6722 74.675Z" fill="white"/>
<path d="M29.1646 70.8334L23.6243 81.4779L19.0206 79.0817L19.9347 77.3254L22.5426 78.6827L23.8931 76.0881L21.4182 74.8L22.3324 73.0437L24.8072 74.3318L26.2546 71.5509L23.6467 70.1936L24.5609 68.4372L29.1646 70.8334Z" fill="white"/>
<path d="M20.1666 64.7207L10.4397 71.8403L9.28079 69.8943L13.7981 66.7501L17.5751 64.2389L17.3678 63.8909L13.4911 66.2346L8.30141 68.1032L6.82778 65.6287L10.943 61.9559L14.8504 59.6637L14.6432 59.3158L10.636 61.4404L5.71952 63.9144L4.56057 61.9683L15.454 56.8077L17.3344 59.9652L14.7445 62.1536L9.10155 65.7237L9.3011 66.0587L15.1282 62.798L18.2862 61.5632L20.1666 64.7207Z" fill="white"/>
<path d="M14.9936 47.3394L3.07178 45.1846L3.21669 41.6476L15.2748 40.4752L15.1802 42.7833L12.6669 42.9355L12.5957 44.6741L15.0881 45.0314L14.9936 47.3394ZM10.6259 44.3832L10.68 43.0643L8.01613 43.2254L5.13117 43.2873L5.11398 43.707L7.9842 44.0047L10.6259 44.3832Z" fill="white"/>
<path d="M16.3465 35.842L5.30148 31.1509L6.18108 29.0799L15.4037 32.997L16.5589 30.2772L18.3813 31.0512L16.3465 35.842Z" fill="white"/>
<path d="M21.1118 26.6321L12.3308 18.4533L13.8643 16.8068L21.1965 23.6361L23.2105 21.4738L24.6594 22.8233L21.1118 26.6321Z" fill="white"/>
<path d="M35.4024 15.253L34.4211 11.5819L38.0922 10.6006L39.0735 14.2717L35.4024 15.253Z" fill="white"/>
<path d="M52.0786 15.8046L54.0936 3.84771L56.3071 4.55906L55.3093 10.5564L54.2125 14.4106L54.6123 14.5391L55.9662 10.7675L58.6491 5.31172L60.8626 6.02307L55.5346 16.9152L52.0786 15.8046Z" fill="white"/>
<path d="M61.1495 19.7813L68.1403 10.028L69.9691 11.3388L62.9782 21.0921L61.1495 19.7813Z" fill="white"/>
<path d="M66.8324 24.4132L76.3825 17.1472L79.5251 21.2776L77.9493 22.4765L76.1691 20.1367L73.8413 21.9078L75.5306 24.1282L73.9549 25.3271L72.2655 23.1067L69.7706 25.005L71.5507 27.3447L69.975 28.5436L66.8324 24.4132Z" fill="white"/>
<path d="M72.9607 33.6493L84.4409 29.9745L84.9243 32.1873L79.644 33.74L75.2664 34.9266L75.3529 35.3223L79.7721 34.3262L85.2864 34.1963L85.9011 37.0099L80.8349 39.1914L76.4029 40.1289L76.4893 40.5246L80.963 39.7776L86.4097 38.9869L86.8931 41.1997L74.9263 42.6471L74.142 39.0567L77.2915 37.8006L83.7743 36.2002L83.691 35.8192L77.1314 37.0679L73.745 37.2396L72.9607 33.6493Z" fill="white"/>
<path d="M74.5305 51.8637L85.3665 57.2816L84.2335 60.6354L72.3318 58.3723L73.0711 56.1838L75.526 56.7439L76.0828 55.0954L73.7912 54.0522L74.5305 51.8637ZM77.8915 55.9281L77.469 57.1787L80.0708 57.7726L82.8569 58.5237L82.9913 58.1258L80.3204 57.0336L77.8915 55.9281Z" fill="white"/>
<path d="M70.7283 62.2097L79.9905 69.8394L78.5599 71.576L70.826 65.2053L68.9472 67.4861L67.4189 66.2272L70.7283 62.2097Z" fill="white"/>
<path d="M66.2405 68.4643L74.6702 77.0049L73.0688 78.5855L66.0301 71.4541L63.927 73.5299L62.5361 72.1207L66.2405 68.4643Z" fill="white"/>
<path d="M57.3494 77.4006L57.9888 81.1464L54.2429 81.7858L53.6035 78.04L57.3494 77.4006Z" fill="white"/>
</svg>
